<?xml version="1.0" encoding="UTF-8"?>
<svg id="Layer_1" data-name="Layer 1" xmlns="http://www.w3.org/2000/svg" viewBox="0 0 256 256">
  <defs>
    <style>
      .cls-1 {
        fill: #ff7900;
      }

      .cls-2 {
        fill: none;
      }
    </style>
  </defs>
  <path class="cls-2" d="M10.19,169.14c33.27-13.88,86.17-29.9,150.15-28.29,35.45.89,65.77,8.1,78.76,10.94"/>
  <path d="M40.4,106.68l22.53,29.77,6.6-36.75,30.75,40.61-9.4,7.14-14.5-19.11-6.6,36.75-22.53-29.77-4.27,23.6-11.61-2.11,9.02-50.14Z"/>
  <path d="M145.12,119.16c.96,12.56-8.45,23.47-21.01,24.43-12.56.96-23.46-8.38-24.43-20.94-.96-12.56,8.37-23.53,20.94-24.5,12.56-.96,23.54,8.45,24.5,21.01ZM111.67,121.73c.46,5.96,5.56,10.33,11.52,9.87,5.96-.46,10.4-5.56,9.95-11.52-.46-5.96-5.64-10.4-11.59-9.94-5.96.46-10.33,5.63-9.87,11.59Z"/>
  <path class="cls-1" d="M172.31,132.24c-.41,12.59-10.96,22.48-23.55,22.07-.79-.03-1.01-.03-1.8-.06l.39-11.95c.79.03,1.01.03,1.8.06,6.05.2,10.95-4.4,11.15-10.51l1.07-32.96,12.02.39-1.07,32.96ZM167.46,95.48c-3.96-.13-7.09-3.47-6.96-7.43.13-4.03,3.47-7.09,7.43-6.96,4.03.13,7.09,3.4,6.96,7.43-.13,3.96-3.4,7.09-7.43,6.96Z"/>
  <path d="M227.77,127.31c-1.87,12.46-13.49,20.98-25.95,19.1-12.46-1.87-20.99-13.42-19.11-25.88,1.87-12.46,13.43-21.06,25.89-19.19,12.46,1.87,21.05,13.5,19.17,25.96ZM194.59,122.32c-.89,5.91,3.1,11.31,9.01,12.2,5.91.89,11.38-3.09,12.27-9,.89-5.91-3.17-11.4-9.07-12.29-5.91-.89-11.33,3.17-12.21,9.08Z"/>
</svg>